<svg width="34" height="37" viewBox="0 0 34 37" fill="none" xmlns="http://www.w3.org/2000/svg">
<path d="M34 21.83C34 26.0234 32.8667 29.7645 30.6 33.0534C30.3733 33.3823 30.0711 33.5673 29.6933 33.6084C29.3156 33.6495 28.9756 33.5467 28.6733 33.3C28.3711 33.0534 28.2011 32.745 28.1633 32.375C28.1256 32.005 28.22 31.6556 28.4467 31.3267C30.4111 28.5312 31.3933 25.3656 31.3933 21.83C31.3933 19.0345 30.7511 16.4445 29.4667 14.06C28.1822 11.6756 26.4256 9.78449 24.1967 8.38671C21.9678 6.98893 19.5689 6.29004 17 6.29004C14.4311 6.29004 12.0322 6.98893 9.80333 8.38671C7.57444 9.78449 5.81778 11.6756 4.53333 14.06C3.24889 16.4445 2.60667 19.0345 2.60667 21.83C2.60667 25.3656 3.58889 28.5312 5.55333 31.3267C5.78 31.6556 5.87444 32.005 5.83667 32.375C5.79889 32.745 5.62889 33.0534 5.32667 33.3C5.02444 33.5467 4.68444 33.6495 4.30667 33.6084C3.92889 33.5673 3.62667 33.3823 3.4 33.0534C1.13333 29.7645 0 26.0234 0 21.83C0 18.5412 0.755556 15.4784 2.26667 12.6417C3.77778 9.80504 5.83667 7.56449 8.44333 5.92004C11.05 4.2756 13.9022 3.45338 17 3.45338C20.0978 3.45338 22.95 4.2756 25.5567 5.92004C28.1633 7.56449 30.2222 9.80504 31.7333 12.6417C33.2444 15.4784 34 18.5412 34 21.83ZM25.3867 13.1967C25.6889 13.4434 25.84 13.7723 25.84 14.1834C25.84 14.5945 25.6889 14.9234 25.3867 15.17L21.08 19.98C21.4578 20.72 21.6467 21.5012 21.6467 22.3234C21.6467 23.7212 21.1933 24.9134 20.2867 25.9C19.38 26.8867 18.2844 27.38 17 27.38C15.7156 27.38 14.62 26.8867 13.7133 25.9C12.8067 24.9134 12.3533 23.7212 12.3533 22.3234C12.3533 20.9256 12.8067 19.7334 13.7133 18.7467C14.62 17.76 15.7156 17.2667 17 17.2667C17.7556 17.2667 18.4733 17.4723 19.1533 17.8834L23.5733 13.1967C23.8 12.8678 24.1022 12.7034 24.48 12.7034C24.8578 12.7034 25.16 12.8678 25.3867 13.1967ZM19.04 22.3234C19.04 21.7478 18.8322 21.2545 18.4167 20.8434C18.0011 20.4323 17.5289 20.2267 17 20.2267C16.4711 20.2267 15.9989 20.4323 15.5833 20.8434C15.1678 21.2545 14.96 21.7478 14.96 22.3234C14.96 22.8989 15.1678 23.4128 15.5833 23.865C15.9989 24.3173 16.4711 24.5434 17 24.5434C17.5289 24.5434 18.0011 24.3173 18.4167 23.865C18.8322 23.4128 19.04 22.8989 19.04 22.3234Z" fill="white"/>
</svg>
