<svg width="30" height="30" viewBox="0 0 30 30" fill="none" xmlns="http://www.w3.org/2000/svg">
<g clip-path="url(#clip0_1047_2402)">
<path d="M17.7999 5.6C17.7999 5.33333 17.7166 5.11667 17.5499 4.95C17.3832 4.78333 17.1666 4.7 16.8999 4.7H7.4999C7.23324 4.7 7.01657 4.78333 6.8499 4.95C6.68324 5.11667 6.5999 5.33333 6.5999 5.6V13.1C6.5999 13.3667 6.68324 13.6 6.8499 13.8C7.01657 14 7.23324 14.1 7.4999 14.1H16.8999C17.1666 14.1 17.3832 14 17.5499 13.8C17.7166 13.6 17.7999 13.3667 17.7999 13.1V5.6ZM15.8999 12.2H8.3999V6.6H15.8999V12.2ZM28.5999 6.6L24.7999 4.8C24.5999 4.66667 24.3666 4.63333 24.0999 4.7C23.8332 4.76667 23.6499 4.91667 23.5499 5.15C23.4499 5.38333 23.4332 5.63333 23.4999 5.9C23.5666 6.16667 23.7332 6.33333 23.9999 6.4L25.3999 7.2L25.2999 7.5C25.2999 8.1 25.4832 8.63333 25.8499 9.1C26.2166 9.56667 26.6666 9.9 27.1999 10.1V21.5C27.1999 21.7667 27.0999 22 26.8999 22.2C26.6999 22.4 26.4832 22.5 26.2499 22.5C26.0166 22.5 25.7999 22.4 25.5999 22.2C25.3999 22 25.2999 21.7667 25.2999 21.5V14C25.2999 12.9333 24.9166 11.9667 24.1499 11.1C23.3832 10.2333 22.5332 9.7 21.5999 9.5V3.7C21.5999 2.7 21.2332 1.83333 20.4999 1.1C19.7666 0.366667 18.8999 0 17.8999 0H6.5999C5.5999 0 4.71657 0.366667 3.9499 1.1C3.18324 1.83333 2.7999 2.7 2.7999 3.7V24.7L1.4999 25.4C1.0999 25.6 0.899902 25.8667 0.899902 26.2V29C0.899902 29.2667 0.999902 29.5 1.1999 29.7C1.3999 29.9 1.63324 30 1.8999 30H22.4999C22.7666 30 22.9832 29.9 23.1499 29.7C23.3166 29.5 23.3999 29.2667 23.3999 29V26.2C23.3999 25.8667 23.2332 25.6 22.8999 25.4L21.5999 24.7V11.4C22.0666 11.6 22.4832 11.95 22.8499 12.45C23.2166 12.95 23.3999 13.4667 23.3999 14V21.5C23.3999 22.3 23.6832 22.9833 24.2499 23.55C24.8166 24.1167 25.4832 24.4 26.2499 24.4C27.0166 24.4 27.6832 24.1167 28.2499 23.55C28.8166 22.9833 29.0999 22.3 29.0999 21.5V7.5C29.0999 7.1 28.9332 6.8 28.5999 6.6ZM21.5999 28.1H2.7999V26.8L4.1999 26.1C4.53324 25.9667 4.6999 25.7 4.6999 25.3V3.7C4.6999 3.23333 4.88324 2.81667 5.2499 2.45C5.61657 2.08333 6.06657 1.9 6.5999 1.9H17.8999C18.3666 1.9 18.7832 2.08333 19.1499 2.45C19.5166 2.81667 19.6999 3.23333 19.6999 3.7V25.3C19.6999 25.7 19.8666 25.9667 20.1999 26.1L21.5999 26.8V28.1Z" fill="white"/>
</g>
<defs>
<clipPath id="clip0_1047_2402">
<rect width="30" height="30" fill="white" transform="matrix(1 0 0 -1 0 30)"/>
</clipPath>
</defs>
</svg>
