<svg width="108" height="26" viewBox="0 0 108 26" fill="none" xmlns="http://www.w3.org/2000/svg">
<g clip-path="url(#clip0_1047_3116)">
<path d="M7.2099 0.499969C11.1999 0.499969 12.9149 2.35497 12.9149 6.13497V7.00997C12.9149 9.52997 12.1449 11.14 10.4299 11.945C12.4949 12.75 13.2999 14.605 13.2999 17.195V19.19C13.2999 22.97 11.3049 25 7.4549 25H1.3999V0.499969H7.2099ZM6.9649 13.975H5.2499V21.5H7.4549C8.7499 21.5 9.4499 20.905 9.4499 19.085V16.95C9.4499 14.675 8.7149 13.975 6.9649 13.975ZM7.1049 3.99997H5.2499V10.475H6.7549C8.1899 10.475 9.0649 9.84497 9.0649 7.88497V6.51997C9.0649 4.76997 8.4699 3.99997 7.1049 3.99997ZM20.9037 6.13497V19.365C20.9037 21.115 21.6737 21.78 22.8987 21.78C24.1237 21.78 24.8937 21.115 24.8937 19.365V6.13497C24.8937 4.38497 24.1237 3.71997 22.8987 3.71997C21.6737 3.71997 20.9037 4.38497 20.9037 6.13497ZM17.0537 19.12V6.37997C17.0537 2.45997 19.1187 0.219971 22.8987 0.219971C26.6787 0.219971 28.7437 2.45997 28.7437 6.37997V19.12C28.7437 23.04 26.6787 25.28 22.8987 25.28C19.1187 25.28 17.0537 23.04 17.0537 19.12ZM41.7579 0.499969H45.3279L41.3029 12.4L45.6079 25H41.5479L38.3979 15.305L35.2129 25H31.6079L35.9129 12.4L31.8879 0.499969H35.8779L38.7829 9.52997L41.7579 0.499969ZM56.2843 15.865H59.9243V19.12C59.9243 23.04 57.9643 25.28 54.1843 25.28C50.4043 25.28 48.4443 23.04 48.4443 19.12V6.37997C48.4443 2.45997 50.4043 0.219971 54.1843 0.219971C57.9643 0.219971 59.9243 2.45997 59.9243 6.37997V8.75997H56.2843V6.13497C56.2843 4.38497 55.5143 3.71997 54.2893 3.71997C53.0643 3.71997 52.2943 4.38497 52.2943 6.13497V19.365C52.2943 21.115 53.0643 21.745 54.2893 21.745C55.5143 21.745 56.2843 21.115 56.2843 19.365V15.865ZM72.5503 0.499969L76.4703 25H72.5853L71.9203 20.555H67.1953L66.5303 25H62.9953L66.9153 0.499969H72.5503ZM69.5403 4.83997L67.6853 17.23H71.3953L69.5403 4.83997ZM91.9832 25H88.0632C87.8532 24.37 87.7132 23.985 87.7132 21.99V18.14C87.7132 15.865 86.9432 15.025 85.1932 15.025H83.8632V25H80.0132V0.499969H85.8232C89.8132 0.499969 91.5282 2.35497 91.5282 6.13497V8.05997C91.5282 10.58 90.7232 12.225 89.0082 13.03C90.9332 13.835 91.5632 15.69 91.5632 18.245V22.025C91.5632 23.215 91.5982 24.09 91.9832 25ZM85.7182 3.99997H83.8632V11.525H85.3682C86.8032 11.525 87.6782 10.895 87.6782 8.93497V6.51997C87.6782 4.76997 87.0832 3.99997 85.7182 3.99997ZM95.3552 6.37997C95.3552 2.45997 97.2802 0.219971 101.025 0.219971C104.77 0.219971 106.695 2.45997 106.695 6.37997V7.14997H103.055V6.13497C103.055 4.38497 102.355 3.71997 101.13 3.71997C99.9052 3.71997 99.2052 4.38497 99.2052 6.13497C99.2052 11.175 106.73 12.12 106.73 19.12C106.73 23.04 104.77 25.28 100.99 25.28C97.2102 25.28 95.2502 23.04 95.2502 19.12V17.615H98.8902V19.365C98.8902 21.115 99.6602 21.745 100.885 21.745C102.11 21.745 102.88 21.115 102.88 19.365C102.88 14.325 95.3552 13.38 95.3552 6.37997Z" fill="white"/>
</g>
<defs>
<clipPath id="clip0_1047_3116">
<rect width="108" height="26" fill="white"/>
</clipPath>
</defs>
</svg>
